<svg width="92" height="64" viewBox="0 0 92 64" fill="none" xmlns="http://www.w3.org/2000/svg">
<path d="M12.768 38.528C14.1333 38.528 15.3493 38.8053 16.416 39.36C17.504 39.8933 18.3573 40.7253 18.976 41.856C19.5947 42.9653 19.904 44.3947 19.904 46.144V56H14.912V46.912C14.912 45.5253 14.6027 44.5013 13.984 43.84C13.3867 43.1787 12.5333 42.848 11.424 42.848C10.6347 42.848 9.92 43.0187 9.28 43.36C8.66133 43.68 8.17067 44.1813 7.808 44.864C7.46667 45.5467 7.296 46.4213 7.296 47.488V56H2.304V32.256H7.296V43.552L6.176 42.112C6.79467 40.96 7.68 40.0747 8.832 39.456C9.984 38.8373 11.296 38.528 12.768 38.528ZM34.989 56V52.64L34.669 51.904V45.888C34.669 44.8213 34.3383 43.9893 33.677 43.392C33.037 42.7947 32.045 42.496 30.701 42.496C29.7837 42.496 28.877 42.6453 27.981 42.944C27.1063 43.2213 26.3597 43.6053 25.741 44.096L23.949 40.608C24.8877 39.9467 26.0183 39.4347 27.341 39.072C28.6637 38.7093 30.0077 38.528 31.373 38.528C33.997 38.528 36.0343 39.1467 37.485 40.384C38.9357 41.6213 39.661 43.552 39.661 46.176V56H34.989ZM29.741 56.256C28.397 56.256 27.245 56.032 26.285 55.584C25.325 55.1147 24.589 54.4853 24.077 53.696C23.565 52.9067 23.309 52.0213 23.309 51.04C23.309 50.016 23.5543 49.12 24.045 48.352C24.557 47.584 25.357 46.9867 26.445 46.56C27.533 46.112 28.9517 45.888 30.701 45.888H35.277V48.8H31.245C30.0717 48.8 29.261 48.992 28.813 49.376C28.3863 49.76 28.173 50.24 28.173 50.816C28.173 51.456 28.4183 51.968 28.909 52.352C29.421 52.7147 30.1143 52.896 30.989 52.896C31.821 52.896 32.5677 52.704 33.229 52.32C33.8903 51.9147 34.3703 51.328 34.669 50.56L35.437 52.864C35.0743 53.9733 34.413 54.816 33.453 55.392C32.493 55.968 31.2557 56.256 29.741 56.256ZM46.067 56.256C45.2137 56.256 44.4777 55.968 43.859 55.392C43.2617 54.7947 42.963 54.0373 42.963 53.12C42.963 52.2027 43.2617 51.4667 43.859 50.912C44.4777 50.336 45.2137 50.048 46.067 50.048C46.9417 50.048 47.6777 50.336 48.275 50.912C48.8723 51.4667 49.171 52.2027 49.171 53.12C49.171 54.0373 48.8723 54.7947 48.275 55.392C47.6777 55.968 46.9417 56.256 46.067 56.256ZM59.6305 56.256C58.2012 56.256 56.9212 55.9787 55.7905 55.424C54.6812 54.8693 53.8172 54.0267 53.1985 52.896C52.5798 51.744 52.2705 50.2827 52.2705 48.512V38.784H57.2625V47.776C57.2625 49.2053 57.5612 50.2613 58.1585 50.944C58.7772 51.6053 59.6412 51.936 60.7505 51.936C61.5185 51.936 62.2012 51.776 62.7985 51.456C63.3958 51.1147 63.8652 50.6027 64.2065 49.92C64.5478 49.216 64.7185 48.3413 64.7185 47.296V38.784H69.7105V56H64.9745V51.264L65.8385 52.64C65.2625 53.8347 64.4092 54.7413 63.2785 55.36C62.1692 55.9573 60.9532 56.256 59.6305 56.256ZM73.1513 56V52.992L83.3273 40.96L84.1913 42.624H73.3753V38.784H88.2233V41.792L78.0473 53.824L77.1513 52.16H88.5113V56H73.1513Z" fill="#300479"/>
<path d="M56.6596 19.6324H61.4571L61.4152 22.4626L56.6596 26.7424V19.6324V19.6324ZM69.9264 18.0657L51 34.7588L52.995 37L70.004 21.9947L87.0098 37L89 34.7588L70.0768 18.0657L70 18L69.9264 18.0657V18.0657Z" fill="#300479"/>
</svg>
